<?xml version="1.0" standalone="no"?>
<!DOCTYPE svg PUBLIC "-//W3C//DTD SVG 20010904//EN"
 "http://www.w3.org/TR/2001/REC-SVG-20010904/DTD/svg10.dtd">
<svg version="1.0" xmlns="http://www.w3.org/2000/svg"
 width="225.000000pt" height="225.000000pt" viewBox="0 0 225.000000 225.000000"
 preserveAspectRatio="xMidYMid meet">

<g transform="translate(0.000000,225.000000) scale(0.100000,-0.100000)"
fill="#000000" stroke="none">
<path d="M920 1591 c-212 -40 -434 -186 -642 -424 l-63 -72 100 94 c124 116
255 209 377 265 149 69 202 81 363 80 128 0 146 -2 210 -27 39 -15 78 -30 89
-32 10 -2 34 -14 55 -25 l36 -21 -35 30 c-44 38 -133 86 -207 112 -65 23 -212
33 -283 20z"/>
<path d="M1403 1412 c214 -232 88 -595 -226 -653 -51 -9 -78 -9 -128 0 -189
38 -307 173 -330 376 -7 69 -7 69 -5 -25 1 -84 6 -103 34 -164 22 -47 51 -86
93 -127 66 -63 70 -76 11 -31 -20 15 -33 21 -28 15 4 -7 28 -27 54 -45 28 -19
41 -24 32 -13 -14 17 -13 18 5 11 112 -46 124 -49 200 -50 188 -1 349 111 406
282 30 90 24 214 -13 295 -33 70 -77 128 -121 159 -26 18 -23 12 16 -30z"/>
<path d="M810 1338 c-12 -22 -12 -22 6 -6 10 10 15 20 12 24 -4 3 -12 -5 -18
-18z"/>
<path d="M1025 1311 c-166 -77 -166 -312 0 -390 144 -68 304 35 305 196 0 64
-10 91 -51 137 -65 74 -167 97 -254 57z m237 -249 c-64 -124 -243 -115 -298
15 -15 34 -19 117 -6 96 5 -8 47 -12 132 -13 185 -2 180 -2 182 18 1 9 3 -5 5
-31 3 -34 -2 -60 -15 -85z"/>
<path d="M1406 1309 c10 -15 23 -25 27 -22 5 3 7 -1 6 -8 -1 -8 3 -34 10 -59
7 -25 17 -65 22 -90 7 -38 8 -33 4 30 -2 46 -11 93 -24 123 -19 44 -38 67 -24
30 6 -16 3 -15 -17 2 l-24 20 20 -26z"/>
<path d="M781 1282 c-25 -63 -33 -123 -25 -179 l8 -58 6 85 c5 57 14 99 28
127 17 33 19 42 8 46 -9 4 -18 -5 -25 -21z"/>
<path d="M721 1224 c0 -11 3 -14 6 -6 3 7 2 16 -1 19 -3 4 -6 -2 -5 -13z"/>
<path d="M1962 1078 c-28 -29 -53 -57 -54 -63 -2 -5 -6 -9 -9 -8 -3 1 -6 -5
-6 -13 0 -7 1 -14 2 -14 1 0 30 34 64 75 34 41 61 75 59 75 -2 0 -27 -24 -56
-52z"/>
<path d="M1461 1054 c0 -11 3 -14 6 -6 3 7 2 16 -1 19 -3 4 -6 -2 -5 -13z"/>
<path d="M1789 893 c-13 -16 -12 -17 4 -4 16 13 21 21 13 21 -2 0 -10 -8 -17
-17z"/>
</g>
</svg>
